# xmcd
#
# Track frame offsets: 
#        150
#        11940
#        27109
#        38033
#        48483
#        61341
#        75140
#        86685
#        98134
#        111978
#        123493
#        137643
#        150294
#        160864
#        172285
#        184495
#        195941
#        208226
#        220478
#        236681
#        251231
#        261192
#        275829
#        290530
#        304574
#        319015
#
# Disc length: 4429 seconds
#
# Revision: 1
# Processed by: cddbd v1.5.2PL0 Copyright (c) Steve Scherf et al.
# Submitted via: ExactAudioCopyFreeDBPlugin 1.0
#
DISCID=7b114b1a
DTITLE=Josh White - Complete Recordings Vol. 5 (1944)
DYEAR=1997
DGENRE=Blues
TTITLE0=When I Lay Down and Die
TTITLE1=Fare Thee Well
TTITLE2=Motherless Children
TTITLE3=Freedom Road
TTITLE4=No More Blues
TTITLE5=Outskirts of Town
TTITLE6=I Got a Head Like a Rock (? Work Blues)
TTITLE7=The House I Live In
TTITLE8=One Meat Ball
TTITLE9=Hard Times
TTITLE10=Strange Fruit
TTITLE11=Jim Crow Train
TTITLE12=Evil Hearted Man
TTITLE13=Joshua Fit the Battle of Jericho
TTITLE14=St. James Infirmary
TTITLE15=Jerry
TTITLE16=No. 12 Train
TTITLE17=Trouble
TTITLE18=Waltzing Matilda
TTITLE19=The Lass with the Delicate Air
TTITLE20=Blues in Berlin
TTITLE21=TB Blues
TTITLE22=Careless Love
TTITLE23=Well Well Well
TTITLE24=Mean Mistreatin' Woman
TTITLE25=Miss Otis Regrets
EXTD=YEAR: 1997 ID3G: 0
EXTT0=
EXTT1=
EXTT2=
EXTT3=
EXTT4=
EXTT5=
EXTT6=
EXTT7=
EXTT8=
EXTT9=
EXTT10=
EXTT11=
EXTT12=
EXTT13=
EXTT14=
EXTT15=
EXTT16=
EXTT17=
EXTT18=
EXTT19=
EXTT20=
EXTT21=
EXTT22=
EXTT23=
EXTT24=
EXTT25=
PLAYORDER=
